<?xml version="1.0" standalone="no"?>
<!DOCTYPE svg PUBLIC "-//W3C//DTD SVG 20010904//EN"
 "http://www.w3.org/TR/2001/REC-SVG-20010904/DTD/svg10.dtd">
<svg version="1.0" xmlns="http://www.w3.org/2000/svg"
 width="800.000000pt" height="800.000000pt" viewBox="0 0 800.000000 800.000000"
 preserveAspectRatio="xMidYMid meet">

<g transform="translate(0.000000,800.000000) scale(0.100000,-0.100000)"
fill="#000000" stroke="none">
<path d="M0 4000 l0 -4000 4000 0 4000 0 0 4000 0 4000 -4000 0 -4000 0 0
-4000z m3879 2773 c1 -38 8 -194 16 -348 31 -580 34 -643 36 -747 2 -76 -1
-111 -10 -122 -7 -9 -92 -75 -187 -147 -96 -73 -174 -136 -174 -141 0 -5 43
-64 95 -131 159 -204 147 -176 154 -339 4 -79 5 -146 3 -151 -3 -6 -166 204
-344 446 -28 37 -54 67 -59 67 -5 0 -23 -13 -41 -28 -32 -28 -240 -187 -588
-452 -96 -73 -208 -157 -247 -188 -66 -50 -81 -72 -50 -72 7 0 92 -26 190 -59
l177 -58 44 31 c25 17 154 114 286 216 133 102 251 192 262 199 19 14 22 13
42 -14 11 -17 120 -158 240 -315 121 -157 227 -298 237 -315 13 -23 19 -65 24
-172 3 -79 3 -143 -2 -143 -4 0 -21 19 -38 43 -16 23 -131 175 -255 338 -124
162 -232 306 -241 319 -16 24 -16 24 -45 5 -16 -10 -135 -99 -264 -198 -129
-99 -241 -182 -247 -184 -19 -7 -793 250 -793 263 0 6 51 50 113 96 61 47 182
138 267 203 85 65 238 181 340 258 102 77 185 144 185 149 0 17 -159 226 -173
227 -7 1 -72 -44 -145 -99 -138 -105 -490 -372 -615 -467 l-72 -56 -88 12
c-48 7 -102 15 -121 19 l-35 8 158 119 c229 174 430 326 696 530 129 98 242
179 251 179 15 1 262 -313 276 -350 3 -8 9 -14 13 -14 4 0 135 97 291 216 156
119 290 219 297 221 15 6 16 94 2 358 -5 105 -12 261 -16 348 -3 86 -10 157
-14 157 -8 0 -38 -23 -605 -455 -187 -143 -394 -300 -459 -350 -124 -95 -405
-309 -672 -511 -87 -66 -231 -176 -318 -243 -87 -67 -168 -124 -180 -126 -12
-3 -70 3 -130 12 l-109 18 262 200 c145 110 381 289 524 398 357 271 1036 788
1477 1126 201 153 368 280 371 280 3 1 7 -29 8 -66z m706 -257 c132 -99 584
-436 1005 -750 1234 -921 1365 -1020 1362 -1031 -2 -5 -45 -24 -95 -42 -98
-34 -931 -317 -1033 -351 l-61 -20 -189 139 c-104 76 -193 139 -199 138 -5 0
-64 -73 -130 -162 l-120 -161 -130 -43 c-71 -23 -136 -42 -142 -42 -7 -1 76
116 183 260 164 217 194 263 183 274 -8 7 -201 151 -429 320 -228 170 -437
326 -463 348 -26 22 -51 36 -55 33 -8 -9 -21 -397 -13 -412 3 -7 134 -107 291
-223 157 -117 289 -218 294 -226 12 -17 20 -6 -258 -378 l-233 -312 -138 -48
c-139 -49 -171 -54 -142 -25 24 23 532 701 535 714 2 6 -30 35 -70 65 -350
259 -456 340 -461 353 -3 8 0 161 8 338 8 178 15 363 15 412 0 66 3 87 13 83
14 -6 862 -640 893 -668 11 -11 25 -19 31 -19 11 0 183 224 182 237 0 5 -75
63 -167 131 -386 283 -589 435 -628 470 -41 37 -42 38 -54 139 -7 56 -10 107
-8 113 2 6 40 -17 84 -52 45 -35 291 -219 548 -411 256 -191 466 -353 466
-360 0 -6 -61 -93 -135 -192 -74 -99 -134 -183 -133 -187 3 -7 577 -438 593
-444 6 -3 132 37 280 87 149 50 327 110 398 133 70 22 127 44 127 48 0 9 -36
37 -450 345 -451 335 -880 655 -1381 1030 l-407 303 -11 83 c-7 45 -15 99 -18
121 -5 32 -3 37 8 30 8 -5 123 -90 254 -188z m-3385 -2016 c74 -21 239 -66
365 -100 127 -34 311 -84 410 -111 99 -28 203 -57 230 -64 58 -16 45 8 152
-295 30 -85 58 -158 62 -163 4 -4 52 9 107 29 54 19 141 49 192 66 91 30 94
30 145 15 29 -9 89 -26 135 -38 45 -12 84 -25 87 -29 2 -4 -51 -25 -118 -48
-153 -50 -481 -164 -486 -169 -6 -4 -7 -1 149 -443 73 -206 155 -446 184 -532
28 -87 54 -157 57 -158 3 0 48 59 100 132 52 73 107 147 123 165 17 20 26 40
23 51 -3 9 -58 166 -122 347 -64 182 -119 337 -122 346 -3 13 5 20 34 29 21 7
200 69 398 137 272 94 367 123 390 119 87 -18 265 -70 258 -76 -7 -7 -61 -26
-418 -150 -66 -23 -161 -57 -210 -75 -50 -19 -119 -42 -154 -51 -35 -10 -65
-23 -67 -29 -3 -6 21 -83 52 -171 107 -305 154 -445 154 -460 0 -19 -29 -62
-190 -279 -69 -93 -166 -224 -214 -289 -63 -86 -91 -115 -96 -105 -9 17 -213
600 -308 881 -48 142 -71 198 -82 198 -23 0 -243 -80 -258 -94 -10 -10 -5 -34
29 -127 43 -121 172 -488 245 -702 24 -71 44 -139 44 -152 0 -23 -20 -69 -74
-173 l-27 -54 -50 144 c-28 79 -90 258 -139 398 -49 140 -114 327 -145 415
-117 330 -124 354 -112 362 7 5 106 40 221 80 115 40 210 74 212 76 4 4 -1 19
-149 441 l-94 269 -79 23 c-44 13 -144 42 -224 63 -80 22 -228 62 -330 90
-101 27 -185 49 -187 48 -1 -1 43 -131 98 -287 115 -327 197 -562 368 -1055
67 -192 137 -393 156 -445 31 -85 218 -623 275 -792 l23 -66 -33 -69 c-18 -37
-42 -88 -53 -112 -14 -32 -22 -40 -27 -30 -5 8 -42 113 -83 234 -42 121 -121
351 -177 510 -56 160 -153 436 -215 615 -63 179 -170 487 -240 685 -260 743
-365 1048 -365 1062 0 10 6 13 17 9 10 -4 78 -24 153 -46z m5750 -138 c0 -5
-14 -48 -31 -98 -17 -49 -89 -260 -159 -469 -71 -209 -202 -594 -291 -855
-374 -1104 -492 -1452 -532 -1572 -23 -71 -45 -127 -49 -125 -4 1 -102 130
-219 287 -117 157 -286 383 -376 503 -90 120 -163 224 -163 232 0 8 32 109 71
225 39 116 69 215 67 221 -2 6 -80 37 -173 68 -94 32 -180 63 -192 69 -33 18
-215 263 -186 251 99 -43 583 -209 606 -209 8 0 41 83 84 213 40 116 126 370
192 564 65 193 117 354 114 356 -2 3 -19 -1 -36 -8 -18 -7 -102 -32 -187 -55
-85 -24 -160 -48 -167 -54 -7 -6 -65 -166 -129 -356 -64 -190 -119 -348 -123
-351 -3 -4 -71 15 -151 41 -381 127 -626 212 -647 225 -25 16 -183 222 -183
238 0 5 8 6 18 1 19 -8 673 -234 767 -264 33 -11 67 -20 75 -20 11 0 44 88
120 315 l105 316 95 29 c202 62 712 201 717 196 2 -2 -12 -50 -31 -107 -264
-781 -335 -993 -333 -994 5 -4 244 -87 264 -92 19 -4 24 3 48 84 27 88 210
631 267 793 17 47 38 93 47 103 17 20 199 112 206 105 4 -4 -78 -249 -331
-993 -36 -104 -74 -218 -85 -252 -11 -35 -26 -63 -32 -63 -7 0 -109 34 -227
75 -118 41 -215 73 -216 72 -1 -1 -25 -69 -53 -152 -120 -348 -181 -536 -181
-555 0 -11 93 -145 208 -298 114 -153 225 -304 247 -335 22 -31 42 -57 45 -56
3 0 39 104 81 232 42 128 168 500 279 827 111 327 219 647 240 710 115 345
281 826 297 858 15 30 35 44 113 84 99 49 110 53 110 40z m-2920 -1162 l0
-460 339 0 340 0 107 -157 c59 -87 161 -237 227 -333 66 -96 122 -183 124
-192 5 -17 -27 -18 -576 -18 l-582 0 3 -147 3 -148 518 3 517 3 88 -88 87 -88
-145 -5 c-116 -4 -1204 -5 -1232 -1 -5 1 -8 107 -8 236 l0 235 -382 0 -383 0
-103 -153 c-57 -83 -164 -240 -238 -347 l-134 -195 1402 -3 1403 -2 77 -77
c43 -43 78 -83 78 -90 0 -10 -327 -13 -1645 -13 -969 0 -1645 4 -1645 9 0 5
111 170 247 367 380 553 454 658 471 672 12 9 78 12 249 12 l233 0 0 206 0
206 82 119 c45 66 85 122 90 125 4 3 8 -144 8 -325 l0 -331 596 0 c474 0 595
3 591 13 -2 6 -37 59 -77 117 -41 58 -91 132 -113 164 l-40 59 -376 -4 -376
-4 -2 430 -3 430 82 118 c45 64 86 117 90 117 4 0 8 -207 8 -460z"/>
</g>
</svg>
